<svg width="171" height="16" viewBox="0 0 171 16" fill="none" xmlns="http://www.w3.org/2000/svg">
<path d="M170.354 8.35355C170.549 8.15829 170.549 7.84171 170.354 7.64645L167.172 4.46447C166.976 4.2692 166.66 4.2692 166.464 4.46447C166.269 4.65973 166.269 4.97631 166.464 5.17157L169.293 8L166.464 10.8284C166.269 11.0237 166.269 11.3403 166.464 11.5355C166.66 11.7308 166.976 11.7308 167.172 11.5355L170.354 8.35355ZM0 8.5H1.51786V7.5H0V8.5ZM4.55357 8.5H7.58929V7.5H4.55357V8.5ZM10.625 8.5H13.6607V7.5H10.625V8.5ZM16.6964 8.5H19.7321V7.5H16.6964V8.5ZM22.7679 8.5H25.8036V7.5H22.7679V8.5ZM28.8393 8.5H31.875V7.5H28.8393V8.5ZM34.9107 8.5H37.9464V7.5H34.9107V8.5ZM40.9821 8.5H44.0179V7.5H40.9821V8.5ZM47.0536 8.5H50.0893V7.5H47.0536V8.5ZM53.125 8.5H56.1607V7.5H53.125V8.5ZM59.1964 8.5H62.2321V7.5H59.1964V8.5ZM65.2679 8.5H68.3036V7.5H65.2679V8.5ZM71.3393 8.5H74.375V7.5H71.3393V8.5ZM77.4107 8.5H80.4464V7.5H77.4107V8.5ZM83.4821 8.5H86.5178V7.5H83.4821V8.5ZM89.5536 8.5H92.5893V7.5H89.5536V8.5ZM95.625 8.5H98.6607V7.5H95.625V8.5ZM101.696 8.5H104.732V7.5H101.696V8.5ZM107.768 8.5H110.804V7.5H107.768V8.5ZM113.839 8.5H116.875V7.5H113.839V8.5ZM119.911 8.5H122.946V7.5H119.911V8.5ZM125.982 8.5H129.018V7.5H125.982V8.5ZM132.054 8.5H135.089V7.5H132.054V8.5ZM138.125 8.5H141.161V7.5H138.125V8.5ZM144.196 8.5H147.232V7.5H144.196V8.5ZM150.268 8.5H153.304V7.5H150.268V8.5ZM156.339 8.5H159.375V7.5H156.339V8.5ZM162.411 8.5H165.446V7.5H162.411V8.5ZM168.482 8.5H170V7.5H168.482V8.5ZM170.707 8.70711C171.098 8.31658 171.098 7.68342 170.707 7.29289L164.343 0.928932C163.953 0.538408 163.319 0.538408 162.929 0.928932C162.538 1.31946 162.538 1.95262 162.929 2.34315L168.586 8L162.929 13.6569C162.538 14.0474 162.538 14.6805 162.929 15.0711C163.319 15.4616 163.953 15.4616 164.343 15.0711L170.707 8.70711ZM0 9H1.51786V7H0V9ZM4.55357 9H7.58929V7H4.55357V9ZM10.625 9H13.6607V7H10.625V9ZM16.6964 9H19.7321V7H16.6964V9ZM22.7679 9H25.8036V7H22.7679V9ZM28.8393 9H31.875V7H28.8393V9ZM34.9107 9H37.9464V7H34.9107V9ZM40.9821 9H44.0179V7H40.9821V9ZM47.0536 9H50.0893V7H47.0536V9ZM53.125 9H56.1607V7H53.125V9ZM59.1964 9H62.2321V7H59.1964V9ZM65.2679 9H68.3036V7H65.2679V9ZM71.3393 9H74.375V7H71.3393V9ZM77.4107 9H80.4464V7H77.4107V9ZM83.4821 9H86.5178V7H83.4821V9ZM89.5536 9H92.5893V7H89.5536V9ZM95.625 9H98.6607V7H95.625V9ZM101.696 9H104.732V7H101.696V9ZM107.768 9H110.804V7H107.768V9ZM113.839 9H116.875V7H113.839V9ZM119.911 9H122.946V7H119.911V9ZM125.982 9H129.018V7H125.982V9ZM132.054 9H135.089V7H132.054V9ZM138.125 9H141.161V7H138.125V9ZM144.196 9H147.232V7H144.196V9ZM150.268 9H153.304V7H150.268V9ZM156.339 9H159.375V7H156.339V9ZM162.411 9H165.446V7H162.411V9ZM168.482 9H170V7H168.482V9Z" fill="#2F3B55"/>
</svg>
