<svg width="31" height="31" viewBox="0 0 31 31" fill="none" xmlns="http://www.w3.org/2000/svg">
<rect width="31" height="31" rx="15.5" fill="white"/>
<path fill-rule="evenodd" clip-rule="evenodd" d="M22.8237 19.9014C22.8163 19.9228 22.8032 19.9632 22.7882 20.0089C22.805 19.9576 22.8181 19.9191 22.8237 19.9014ZM22.7491 20.1274C22.7631 20.0854 22.7761 20.0453 22.7882 20.0089C22.777 20.0425 22.7658 20.0779 22.7481 20.1302C22.708 20.2534 22.6856 20.3194 22.6753 20.3521C22.6893 20.3101 22.7182 20.2216 22.7481 20.1302C22.315 21.4434 20.6229 22.0974 19.4133 21.9882C17.7613 21.8398 15.9637 20.9636 14.5992 19.9985C12.5935 18.5797 10.7156 16.3843 9.6199 14.0555C8.84617 12.41 8.67256 10.3877 9.82429 8.88782C10.2499 8.33247 10.7091 8.03637 11.4016 8.00276C12.3602 7.9561 12.4955 8.50408 12.824 9.35998C13.0695 9.9984 13.3971 10.6506 13.58 11.3133C13.9225 12.5509 12.726 12.6017 12.5748 13.6135C12.4796 14.2509 13.2524 15.1059 13.6024 15.5604C14.2856 16.4499 15.1079 17.2188 16.0356 17.8031C16.5667 18.1373 17.4253 18.7411 18.0339 18.4079C18.97 17.8955 18.8813 16.3144 20.1927 16.8492C20.8712 17.1265 21.5273 17.5242 22.176 17.8733C23.1765 18.4119 23.1299 18.9701 22.7491 20.1274Z" fill="#D13954"/>
</svg>
