<svg width="31" height="31" viewBox="0 0 31 31" fill="none" xmlns="http://www.w3.org/2000/svg">
<rect width="31" height="31" rx="15.5" fill="white"/>
<path fill-rule="evenodd" clip-rule="evenodd" d="M19.4835 9C20.6609 9 21.7257 9.29429 22.4985 10.0119C23.2787 10.7364 23.6758 11.8122 23.6758 13.1923V18.296C23.6758 19.6762 23.2787 20.752 22.4985 21.4764C21.7257 22.1941 20.6609 22.4884 19.4835 22.4884H12.1924C11.015 22.4884 9.95017 22.1941 9.1774 21.4764C8.39719 20.752 8.00012 19.6762 8.00012 18.296V13.1923C8.00012 11.8122 8.39719 10.7364 9.1774 10.0119C9.95017 9.29429 11.015 9 12.1924 9H19.4835ZM10.5676 13.0919C10.3287 12.9073 10.2847 12.5639 10.4694 12.3249C10.654 12.0859 10.9974 12.0419 11.2364 12.2265L15.2808 15.3516C15.6089 15.6053 16.067 15.6053 16.3953 15.3516L20.4396 12.2265C20.6786 12.0419 21.022 12.0859 21.2066 12.3249C21.3913 12.5639 21.3473 12.9073 21.1083 13.0919L17.0639 16.2171C16.3418 16.775 15.3341 16.775 14.612 16.2171L10.5676 13.0919Z" fill="#D13954"/>
</svg>
