<svg width="31" height="31" viewBox="0 0 31 31" fill="none" xmlns="http://www.w3.org/2000/svg">
<rect width="31" height="31" rx="15.5" fill="white"/>
<path d="M15.5 24C16.2895 24 15.3555 22.7515 19.2476 20.8095C19.4609 20.703 19.6678 20.5842 19.8674 20.4537C21.8039 19.1918 23 16.8837 23 14.3993C23 10.313 19.6424 7 15.5 7C11.3576 7 8 10.313 8 14.3986C8 17.136 9.45579 19.6622 11.7461 20.8064C15.6421 22.7507 14.7105 24 15.5 24ZM15.5 17.366C13.8334 17.366 12.5 16.044 12.5 14.4365C12.5 12.829 13.8334 11.507 15.5 11.507C17.1666 11.507 18.5 12.829 18.5 14.4365C18.5 16.044 17.1666 17.366 15.5 17.366Z" fill="#D13954"/>
</svg>
